%
M48
M72
T01C0.01400
T02C0.01575
T03C0.02362
T04C0.02400
T05C0.03898
T06C0.03937
T07C0.05118
T08C0.05984
T09C0.12000
T10C0.12205
T11C0.14173
T12C0.15000
%
T01
X122071Y125236
X120496Y130748
X129551Y139803
X136244Y130748
X143331Y130748
X152780Y125236
X158292Y123661
X118528Y146889
X107504Y127992
X111048Y169330
X52386Y146889
X52386Y139803
X46481Y163425
X288213Y120511
X288213Y114606
X288213Y105551
T02
X298843Y115000
X238607Y141378
X217347Y120118
X206717Y103976
X201992Y81141
X164985Y70905
X62229Y113031
X52386Y173661
T03
X63134Y179567
X63134Y133897
T04
X291680Y109312
X307580Y125412
T05
X22777Y27162
X40493Y27162
T06
X76694Y35113
X76694Y45113
X76694Y55113
T07
X45416Y36965
X17853Y36965
T08
X177235Y61762
X202235Y61762
X227235Y61762
X252235Y61762
T09
X52347Y110275
X52347Y203189
T10
X286835Y205284
X305339Y193473
T11
X286835Y181662
T12
X281251Y51762
X148219Y51762
M30
