%
M48
M72
T01C0.00400
T02C0.01575
T03C0.02362
T04C0.02400
T05C0.03898
T06C0.03937
T07C0.05118
T08C0.05984
T09C0.12000
T10C0.12205
T11C0.14173
T12C0.15000
%
T01
X165378Y122086
X154355Y123661
X142544Y128779
X139000Y127204
X135457Y125630
X129551Y130354
X125221Y127204
X123646Y128779
X121677Y128779
X116166Y130354
X111048Y123661
X53567Y144133
X48843Y165393
X189788Y97677
X209866Y97677
X287032Y114606
X287032Y120511
X297662Y114212
T02
X300418Y116181
X251992Y153189
X269709Y155944
X206717Y103976
X201992Y91771
X164591Y71693
X81126Y77204
X57504Y135472
X52780Y173661
X75614Y177992
T03
X63134Y179567
X63134Y133897
T04
X291680Y109312
X307580Y125412
T05
X22777Y27162
X40493Y27162
T06
X76694Y35113
X76694Y45113
X76694Y55113
T07
X45416Y36965
X17853Y36965
T08
X177235Y61762
X202235Y61762
X227235Y61762
X252235Y61762
T09
X52347Y110275
X52347Y203189
T10
X286835Y205284
X305339Y193473
T11
X286835Y181662
T12
X281251Y51762
X148219Y51762
M30
