%
M48
M72
T01C0.0236
T02C0.0240
T03C0.0276
T04C0.0315
T05C0.0390
T06C0.0394
T07C0.0512
T08C0.0598
T09C0.1200
T10C0.1220
T11C0.1417
T12C0.1500
%
T01
X6313Y13390
X6313Y17957
T02
X29168Y10931
X30758Y12541
T03
X18433Y8498
X17933Y8498
X17433Y8498
X16933Y8498
X16433Y8498
X15933Y8498
X15433Y8498
X14933Y8498
X14433Y8498
X13933Y8498
X13933Y7998
X14433Y7998
X14933Y7998
X15433Y7998
X15933Y7998
X16433Y7998
X16933Y7998
X17433Y7998
X17933Y7998
X18433Y7998
T04
X16065Y9768
X14648Y11185
X13388Y11106
X12207Y11185
X13782Y9807
X11892Y8508
X8565Y12681
X12168Y15181
X13585Y13783
X9215Y18468
X3309Y14886
X22030Y5102
X28113Y9374
X30514Y10122
X27995Y11776
X27758Y13035
T05
X2278Y2716
X4049Y2716
T06
X10121Y3728
X10121Y4728
X10121Y5728
T07
X4542Y3696
X1785Y3696
T08
X17723Y6176
X20223Y6176
X22723Y6176
X25223Y6176
T09
X5235Y11028
X5235Y20319
T10
X28683Y20528
X30534Y19347
T11
X28683Y18166
T12
X28125Y5176
X14822Y5176
M30
