G75*
%MOIN*%
%OFA0B0*%
%FSLAX24Y24*%
%IPPOS*%
%LPD*%
%AMOC8*
5,1,8,0,0,1.08239X$1,22.5*
%
%ADD10C,0.0898*%
%ADD11C,0.1620*%
%ADD12C,0.1817*%
%ADD13R,0.0709X0.0315*%
%ADD14R,0.1024X0.0118*%
%ADD15R,0.0866X0.0236*%
%ADD16R,0.0394X0.0551*%
%ADD17R,0.0413X0.0413*%
%ADD18C,0.0585*%
%ADD19C,0.0394*%
%ADD20R,0.0740X0.0740*%
%ADD21C,0.0740*%
%ADD22C,0.0400*%
%ADD23C,0.0120*%
%ADD24C,0.0760*%
D10*
X017723Y006176D03*
X020223Y006176D03*
X022723Y006176D03*
X025223Y006176D03*
D11*
X030534Y019347D03*
X028683Y020528D03*
D12*
X028683Y018166D03*
D13*
X006904Y018232D03*
X006904Y013114D03*
D14*
X007809Y013803D03*
X007809Y014000D03*
X007809Y014197D03*
X007809Y014394D03*
X007809Y014591D03*
X007809Y014787D03*
X007809Y014984D03*
X007809Y015181D03*
X007809Y015378D03*
X007809Y015575D03*
X007809Y015772D03*
X007809Y015968D03*
X007809Y016165D03*
X007809Y016362D03*
X007809Y016559D03*
X007809Y016756D03*
X007809Y016953D03*
X007809Y017150D03*
X007809Y017346D03*
X007809Y017543D03*
X005998Y017543D03*
X005998Y017346D03*
X005998Y017150D03*
X005998Y016953D03*
X005998Y016756D03*
X005998Y016559D03*
X005998Y016362D03*
X005998Y016165D03*
X005998Y015968D03*
X005998Y015772D03*
X005998Y015575D03*
X005998Y015378D03*
X005998Y015181D03*
X005998Y014984D03*
X005998Y014787D03*
X005998Y014591D03*
X005998Y014394D03*
X005998Y014197D03*
X005998Y014000D03*
X005998Y013803D03*
D15*
X022920Y012291D03*
X022920Y011791D03*
X022920Y011291D03*
X022920Y010791D03*
X022920Y010291D03*
X022920Y009791D03*
X022920Y009291D03*
X024967Y009291D03*
X024967Y009791D03*
X024967Y010291D03*
X024967Y010791D03*
X024967Y011291D03*
X024967Y011791D03*
X024967Y012291D03*
D16*
X021428Y012185D03*
X020640Y012185D03*
X020636Y011185D03*
X021424Y011185D03*
X021424Y010303D03*
X020636Y010303D03*
X007995Y009138D03*
X007207Y009138D03*
D17*
X013933Y008498D03*
X014433Y008498D03*
X014433Y007998D03*
X013933Y007998D03*
X014933Y007998D03*
X015433Y007998D03*
X015433Y008498D03*
X014933Y008498D03*
X015933Y008498D03*
X016433Y008498D03*
X016433Y007998D03*
X015933Y007998D03*
X016933Y007998D03*
X017433Y007998D03*
X017433Y008498D03*
X016933Y008498D03*
X017933Y008498D03*
X018433Y008498D03*
X018433Y007998D03*
X017933Y007998D03*
D18*
X002278Y002716D03*
X004049Y002716D03*
D19*
X001380Y020713D03*
X022680Y020909D03*
X030908Y002720D03*
D20*
X010121Y005728D03*
D21*
X010121Y004728D03*
X010121Y003728D03*
D22*
X011892Y008508D02*
X012443Y009059D01*
X017128Y009059D01*
X018723Y010654D01*
X018723Y010732D01*
X018723Y011461D01*
X018723Y013567D01*
X019372Y014216D01*
X020869Y014216D01*
X025849Y014216D01*
X028683Y017051D01*
X028683Y018166D01*
X009215Y018468D02*
X007817Y018468D01*
X007817Y017551D01*
X007817Y018528D02*
X007581Y018764D01*
X006380Y018764D01*
X006183Y018764D01*
X005802Y018382D01*
X005802Y017543D01*
X005843Y013860D02*
X005843Y013085D01*
X005841Y013083D01*
X006400Y012524D01*
X007266Y012524D01*
X008408Y012524D01*
X008565Y012681D01*
D23*
X006223Y011382D02*
X007601Y010004D01*
X008802Y010004D01*
X012443Y006362D01*
X015534Y006362D01*
X016932Y004965D01*
X020632Y004965D01*
X021538Y005870D01*
X021538Y005968D01*
X021538Y006461D01*
X023782Y008705D01*
X023782Y009551D01*
X023546Y009787D01*
X022924Y009787D01*
X022920Y009791D01*
X022920Y009291D02*
X022916Y009287D01*
X022916Y008331D01*
X021203Y006618D01*
X021203Y006028D01*
X020416Y005240D01*
X017109Y005240D01*
X016026Y006323D01*
X015711Y006638D01*
X012640Y006638D01*
X012561Y006716D01*
X011459Y007819D01*
X008959Y010319D01*
X007758Y010319D01*
X005947Y012130D01*
X005140Y012937D01*
X005140Y012957D01*
X005140Y013350D01*
X005140Y013980D01*
X005357Y014197D01*
X005998Y014197D01*
X005998Y014394D02*
X005140Y014394D01*
X004845Y014098D01*
X004845Y013232D01*
X004845Y012839D01*
X004845Y012760D01*
X005750Y011854D01*
X006223Y011382D01*
X004215Y010161D02*
X004215Y013980D01*
X003309Y014886D01*
X003329Y014905D01*
X003329Y016854D01*
X003624Y017150D01*
X005998Y017150D01*
X005998Y017346D02*
X005998Y017543D01*
X005998Y017543D01*
X005802Y017543D01*
X005998Y017543D02*
X003211Y017543D01*
X003152Y017484D01*
X002483Y016815D01*
X002483Y012248D01*
X003585Y011146D01*
X003585Y008941D01*
X004176Y008350D01*
X004176Y005004D01*
X003624Y004453D01*
X003624Y003665D01*
X002680Y002720D01*
X002278Y002720D01*
X002278Y002716D01*
X002675Y002716D02*
X002680Y002720D01*
X008624Y009138D02*
X010435Y007327D01*
X014018Y003744D01*
X020672Y003744D01*
X022030Y005102D01*
X021932Y005201D01*
X019648Y006933D02*
X018743Y006028D01*
X017872Y006028D01*
X017723Y006176D01*
X019648Y006933D02*
X019648Y006953D01*
X020636Y007941D01*
X020636Y010303D01*
X020636Y011185D01*
X020613Y011161D01*
X020613Y011126D01*
X020640Y011154D01*
X020640Y012185D01*
X020632Y012193D01*
X020632Y012661D01*
X020829Y012858D01*
X022680Y012858D01*
X022920Y012618D01*
X022920Y012291D01*
X022920Y011791D02*
X022231Y011791D01*
X021833Y012189D01*
X021432Y012189D01*
X021428Y012185D01*
X021424Y011185D02*
X021813Y011185D01*
X021920Y011291D01*
X022920Y011291D01*
X022920Y010791D02*
X022306Y010791D01*
X021813Y010299D01*
X021428Y010299D01*
X021424Y010303D01*
X024967Y011291D02*
X027298Y011291D01*
X028231Y010358D01*
X030278Y010358D01*
X030514Y010122D01*
X028113Y009374D02*
X026065Y009374D01*
X025987Y009295D01*
X025160Y009295D01*
X025219Y009236D01*
X025219Y006181D01*
X025223Y006176D01*
X025160Y009295D02*
X024971Y009295D01*
X024967Y009291D01*
X024967Y011791D02*
X027979Y011791D01*
X027995Y011776D01*
X027014Y012291D02*
X027758Y013035D01*
X027014Y012291D02*
X024967Y012291D01*
X016065Y011421D02*
X016065Y009768D01*
X014687Y011146D02*
X014648Y011185D01*
X014687Y011146D02*
X015199Y011657D01*
X015199Y014768D01*
X013014Y016953D01*
X012306Y016953D01*
X010376Y016953D01*
X009707Y016953D01*
X009471Y016953D01*
X007809Y016953D01*
X007809Y017150D02*
X010337Y017150D01*
X010573Y017150D01*
X010750Y017150D01*
X011420Y017150D01*
X013487Y017150D01*
X013546Y017091D01*
X013506Y017130D01*
X013546Y017091D02*
X014372Y016264D01*
X016065Y014571D01*
X016065Y011421D01*
X014963Y012327D02*
X014451Y011815D01*
X014136Y011815D01*
X014058Y011736D01*
X014058Y010083D01*
X013782Y009807D01*
X013388Y011106D02*
X013388Y011657D01*
X013979Y012248D01*
X014333Y012248D01*
X014569Y012484D01*
X014569Y014571D01*
X012581Y016559D01*
X011991Y016559D01*
X007809Y016559D01*
X007809Y016362D02*
X011676Y016362D01*
X012266Y016362D01*
X014254Y014374D01*
X014254Y012996D01*
X013191Y011933D01*
X012955Y011933D01*
X012207Y011185D01*
X014963Y012327D02*
X014963Y014610D01*
X012817Y016756D01*
X012187Y016756D01*
X011558Y016756D01*
X009766Y016756D01*
X009176Y016756D01*
X009195Y016756D01*
X009176Y016756D02*
X007975Y016756D01*
X007809Y016756D01*
X007809Y017346D02*
X007809Y017543D01*
X007817Y017551D01*
X007817Y017551D01*
X007817Y018468D02*
X007817Y018528D01*
X007809Y015378D02*
X009589Y015378D01*
X009845Y015122D01*
X012109Y015122D01*
X012168Y015181D01*
X011361Y014709D02*
X011695Y014374D01*
X012995Y014374D01*
X013585Y013783D01*
X011361Y014709D02*
X008959Y014709D01*
X008487Y015181D01*
X007809Y015181D01*
X005998Y014000D02*
X005998Y013803D01*
X005941Y013860D01*
X005843Y013860D01*
X004215Y010161D02*
X005239Y009138D01*
X007207Y009138D01*
X007995Y009138D02*
X008624Y009138D01*
D24*
X011892Y008508D03*
X013782Y009807D03*
X013388Y011106D03*
X012207Y011185D03*
X014648Y011185D03*
X016065Y009768D03*
X013585Y013783D03*
X012168Y015181D03*
X008565Y012681D03*
X003309Y014886D03*
X009215Y018468D03*
X022030Y005102D03*
X028113Y009374D03*
X030514Y010122D03*
X027995Y011776D03*
X027758Y013035D03*
M02*
