%
M48
M72
T01C0.0236
T02C0.0240
T03C0.0276
T04C0.0315
T05C0.0390
T06C0.0512
T07C0.0598
T08C0.1200
T09C0.1220
T10C0.1417
T11C0.1500
%
T01
X7042Y13390
X7042Y17957
T02
X29897Y10931
X31487Y12541
T03
X19162Y8498
X18662Y8498
X18162Y8498
X17662Y8498
X17162Y8498
X16662Y8498
X16162Y8498
X15662Y8498
X15162Y8498
X14662Y8498
X14662Y7998
X15162Y7998
X15662Y7998
X16162Y7998
X16662Y7998
X17162Y7998
X17662Y7998
X18162Y7998
X18662Y7998
X19162Y7998
T04
X16794Y9768
X15377Y11185
X14117Y11106
X12936Y11185
X14511Y9807
X10574Y11657
X9294Y12681
X12188Y15378
X14314Y13783
X9944Y18468
X4038Y14886
X21597Y14216
X28487Y13035
X28723Y11776
X31243Y10122
X28841Y9374
X22759Y5102
T05
X3006Y2716
X4778Y2716
T06
X5270Y3696
X2514Y3696
T07
X18452Y6176
X20952Y6176
X23452Y6176
X25952Y6176
T08
X5963Y11028
X5963Y20319
T09
X29412Y20528
X31263Y19347
T10
X29412Y18166
T11
X28854Y5176
X15551Y5176
M30
