G75*
%MOIN*%
%OFA0B0*%
%FSLAX24Y24*%
%IPPOS*%
%LPD*%
%AMOC8*
5,1,8,0,0,1.08239X$1,22.5*
%
%ADD10C,0.0010*%
%ADD11C,0.0000*%
%ADD12R,0.0512X0.0984*%
%ADD13R,0.0472X0.0157*%
%ADD14R,0.0551X0.0394*%
%ADD15R,0.0591X0.0512*%
%ADD16R,0.0512X0.0591*%
%ADD17R,0.0480X0.0880*%
%ADD18R,0.1417X0.0866*%
%ADD19R,0.0472X0.0354*%
D10*
X001382Y001806D02*
X001363Y001846D01*
X001341Y001885D01*
X001316Y001921D01*
X001288Y001956D01*
X001258Y001988D01*
X001225Y002019D01*
X001190Y002046D01*
X001153Y002071D01*
X001115Y002093D01*
X001075Y002112D01*
X001074Y002110D02*
X001040Y002126D01*
X001008Y002146D01*
X000979Y002169D01*
X000952Y002195D01*
X000927Y002223D01*
X000905Y002253D01*
X000886Y002286D01*
X000870Y002320D01*
X000858Y002355D01*
X000849Y002392D01*
X000844Y002429D01*
X000842Y002466D01*
X000842Y003926D01*
X003202Y003926D01*
X003256Y003928D01*
X003310Y003933D01*
X003363Y003943D01*
X003415Y003955D01*
X003467Y003972D01*
X003517Y003991D01*
X003565Y004015D01*
X003612Y004041D01*
X003658Y004071D01*
X003701Y004103D01*
X003741Y004139D01*
X003779Y004177D01*
X003815Y004217D01*
X003847Y004260D01*
X003877Y004306D01*
X003903Y004353D01*
X003927Y004401D01*
X003946Y004451D01*
X003963Y004503D01*
X003975Y004555D01*
X003985Y004608D01*
X003990Y004662D01*
X003992Y004716D01*
X003992Y007866D01*
X003990Y007920D01*
X003985Y007974D01*
X003975Y008027D01*
X003963Y008079D01*
X003946Y008131D01*
X003927Y008181D01*
X003903Y008229D01*
X003877Y008276D01*
X003847Y008322D01*
X003815Y008365D01*
X003779Y008405D01*
X003741Y008443D01*
X003701Y008479D01*
X003658Y008511D01*
X003612Y008541D01*
X003565Y008567D01*
X003517Y008591D01*
X003467Y008610D01*
X003415Y008627D01*
X003363Y008639D01*
X003310Y008649D01*
X003256Y008654D01*
X003202Y008656D01*
X000842Y008656D01*
X000842Y021006D01*
X000833Y021006D02*
X000835Y021044D01*
X000841Y021082D01*
X000851Y021119D01*
X000864Y021154D01*
X000880Y021189D01*
X000899Y021221D01*
X000922Y021252D01*
X000947Y021280D01*
X000975Y021306D01*
X001005Y021329D01*
X001038Y021350D01*
X001072Y021366D01*
X001112Y021385D01*
X001150Y021407D01*
X001186Y021432D01*
X001220Y021459D01*
X001253Y021489D01*
X001283Y021521D01*
X001310Y021555D01*
X001335Y021591D01*
X001357Y021629D01*
X001376Y021669D01*
X001379Y021667D02*
X001396Y021702D01*
X001416Y021734D01*
X001439Y021765D01*
X001465Y021793D01*
X001494Y021818D01*
X001525Y021841D01*
X001558Y021860D01*
X001593Y021877D01*
X001629Y021889D01*
X001666Y021899D01*
X001704Y021904D01*
X001742Y021906D01*
X018702Y021906D01*
X018702Y017976D01*
X018704Y017900D01*
X018710Y017824D01*
X018720Y017749D01*
X018733Y017674D01*
X018751Y017600D01*
X018772Y017527D01*
X018797Y017456D01*
X018825Y017385D01*
X018858Y017317D01*
X018893Y017249D01*
X018932Y017184D01*
X018975Y017121D01*
X019020Y017061D01*
X019069Y017002D01*
X019121Y016947D01*
X019175Y016894D01*
X019232Y016843D01*
X019292Y016796D01*
X019354Y016752D01*
X019418Y016711D01*
X019484Y016674D01*
X019552Y016640D01*
X019621Y016610D01*
X019692Y016583D01*
X019765Y016560D01*
X019838Y016540D01*
X019913Y016525D01*
X019988Y016513D01*
X020063Y016505D01*
X020139Y016501D01*
X020215Y016501D01*
X020291Y016505D01*
X020366Y016513D01*
X020441Y016525D01*
X020516Y016540D01*
X020589Y016560D01*
X020662Y016583D01*
X020733Y016610D01*
X020802Y016640D01*
X020870Y016674D01*
X020936Y016711D01*
X021000Y016752D01*
X021062Y016796D01*
X021122Y016843D01*
X021179Y016894D01*
X021233Y016947D01*
X021285Y017002D01*
X021334Y017061D01*
X021379Y017121D01*
X021422Y017184D01*
X021461Y017249D01*
X021496Y017317D01*
X021529Y017385D01*
X021557Y017456D01*
X021582Y017527D01*
X021603Y017600D01*
X021621Y017674D01*
X021634Y017749D01*
X021644Y017824D01*
X021650Y017900D01*
X021652Y017976D01*
X021652Y021906D01*
X024852Y021906D01*
X024852Y021066D01*
X024854Y020991D01*
X024860Y020917D01*
X024870Y020843D01*
X024883Y020770D01*
X024901Y020697D01*
X024922Y020626D01*
X024947Y020555D01*
X024975Y020486D01*
X025007Y020419D01*
X025043Y020354D01*
X025082Y020290D01*
X025124Y020228D01*
X025170Y020169D01*
X025218Y020112D01*
X025269Y020058D01*
X025323Y020007D01*
X025380Y019959D01*
X025439Y019913D01*
X025501Y019871D01*
X025565Y019832D01*
X025630Y019796D01*
X025697Y019764D01*
X025766Y019736D01*
X025837Y019711D01*
X025908Y019690D01*
X025981Y019672D01*
X026054Y019659D01*
X026128Y019649D01*
X026202Y019643D01*
X026277Y019641D01*
X026352Y019643D01*
X026426Y019649D01*
X026500Y019659D01*
X026573Y019672D01*
X026646Y019690D01*
X026717Y019711D01*
X026788Y019736D01*
X026857Y019764D01*
X026924Y019796D01*
X026990Y019832D01*
X027053Y019871D01*
X027115Y019913D01*
X027174Y019959D01*
X027231Y020007D01*
X027285Y020058D01*
X027336Y020112D01*
X027384Y020169D01*
X027430Y020228D01*
X027472Y020290D01*
X027511Y020354D01*
X027547Y020419D01*
X027579Y020486D01*
X027607Y020555D01*
X027632Y020626D01*
X027653Y020697D01*
X027671Y020770D01*
X027684Y020843D01*
X027694Y020917D01*
X027700Y020991D01*
X027702Y021066D01*
X027702Y021906D01*
X032082Y021906D01*
X032082Y021903D02*
X032120Y021901D01*
X032158Y021896D01*
X032194Y021887D01*
X032230Y021874D01*
X032265Y021858D01*
X032298Y021838D01*
X032328Y021816D01*
X032357Y021791D01*
X032382Y021763D01*
X032405Y021733D01*
X032425Y021700D01*
X032442Y021666D01*
X032461Y021626D01*
X032483Y021587D01*
X032508Y021551D01*
X032536Y021516D01*
X032566Y021484D01*
X032599Y021453D01*
X032634Y021426D01*
X032671Y021401D01*
X032709Y021379D01*
X032749Y021360D01*
X032750Y021362D02*
X032784Y021346D01*
X032816Y021326D01*
X032845Y021303D01*
X032872Y021277D01*
X032897Y021249D01*
X032919Y021219D01*
X032938Y021186D01*
X032954Y021152D01*
X032966Y021117D01*
X032975Y021080D01*
X032980Y021043D01*
X032982Y021006D01*
X032982Y017176D01*
X032927Y017174D01*
X032873Y017168D01*
X032819Y017159D01*
X032766Y017146D01*
X032714Y017129D01*
X032663Y017108D01*
X032613Y017084D01*
X032566Y017057D01*
X032521Y017026D01*
X032477Y016992D01*
X032437Y016956D01*
X032399Y016916D01*
X032363Y016874D01*
X032331Y016830D01*
X032302Y016784D01*
X032276Y016735D01*
X032254Y016685D01*
X032235Y016634D01*
X032220Y016581D01*
X032209Y016527D01*
X032201Y016473D01*
X032197Y016418D01*
X032197Y016364D01*
X032201Y016309D01*
X032209Y016255D01*
X032220Y016201D01*
X032235Y016148D01*
X032254Y016097D01*
X032276Y016047D01*
X032302Y015998D01*
X032331Y015952D01*
X032363Y015908D01*
X032399Y015866D01*
X032437Y015826D01*
X032477Y015790D01*
X032521Y015756D01*
X032566Y015725D01*
X032613Y015698D01*
X032663Y015674D01*
X032714Y015653D01*
X032766Y015636D01*
X032819Y015623D01*
X032873Y015614D01*
X032927Y015608D01*
X032982Y015606D01*
X032982Y002466D01*
X032991Y002466D02*
X032989Y002428D01*
X032983Y002390D01*
X032973Y002353D01*
X032960Y002318D01*
X032944Y002283D01*
X032925Y002251D01*
X032902Y002220D01*
X032877Y002192D01*
X032849Y002166D01*
X032819Y002143D01*
X032786Y002122D01*
X032752Y002106D01*
X032712Y002087D01*
X032674Y002065D01*
X032638Y002040D01*
X032604Y002013D01*
X032571Y001983D01*
X032541Y001951D01*
X032514Y001917D01*
X032489Y001881D01*
X032467Y001843D01*
X032448Y001803D01*
X032445Y001805D02*
X032428Y001770D01*
X032408Y001738D01*
X032385Y001707D01*
X032359Y001679D01*
X032330Y001654D01*
X032299Y001631D01*
X032266Y001612D01*
X032231Y001595D01*
X032195Y001583D01*
X032158Y001573D01*
X032120Y001568D01*
X032082Y001566D01*
X014822Y001566D01*
X014822Y002406D01*
X014820Y002481D01*
X014814Y002555D01*
X014804Y002629D01*
X014791Y002702D01*
X014773Y002775D01*
X014752Y002846D01*
X014727Y002917D01*
X014699Y002986D01*
X014667Y003053D01*
X014631Y003119D01*
X014592Y003182D01*
X014550Y003244D01*
X014504Y003303D01*
X014456Y003360D01*
X014405Y003414D01*
X014351Y003465D01*
X014294Y003513D01*
X014235Y003559D01*
X014173Y003601D01*
X014110Y003640D01*
X014044Y003676D01*
X013977Y003708D01*
X013908Y003736D01*
X013837Y003761D01*
X013766Y003782D01*
X013693Y003800D01*
X013620Y003813D01*
X013546Y003823D01*
X013472Y003829D01*
X013397Y003831D01*
X013322Y003829D01*
X013248Y003823D01*
X013174Y003813D01*
X013101Y003800D01*
X013028Y003782D01*
X012957Y003761D01*
X012886Y003736D01*
X012817Y003708D01*
X012750Y003676D01*
X012685Y003640D01*
X012621Y003601D01*
X012559Y003559D01*
X012500Y003513D01*
X012443Y003465D01*
X012389Y003414D01*
X012338Y003360D01*
X012290Y003303D01*
X012244Y003244D01*
X012202Y003182D01*
X012163Y003119D01*
X012127Y003053D01*
X012095Y002986D01*
X012067Y002917D01*
X012042Y002846D01*
X012021Y002775D01*
X012003Y002702D01*
X011990Y002629D01*
X011980Y002555D01*
X011974Y002481D01*
X011972Y002406D01*
X011972Y001566D01*
X001742Y001566D01*
X001742Y001569D02*
X001704Y001571D01*
X001666Y001576D01*
X001630Y001585D01*
X001594Y001598D01*
X001559Y001614D01*
X001526Y001634D01*
X001496Y001656D01*
X001467Y001681D01*
X001442Y001709D01*
X001419Y001739D01*
X001399Y001772D01*
X001382Y001806D01*
D11*
X002258Y003696D02*
X002260Y003727D01*
X002266Y003758D01*
X002275Y003788D01*
X002288Y003817D01*
X002305Y003844D01*
X002325Y003868D01*
X002347Y003890D01*
X002373Y003909D01*
X002400Y003925D01*
X002429Y003937D01*
X002459Y003946D01*
X002490Y003951D01*
X002522Y003952D01*
X002553Y003949D01*
X002584Y003942D01*
X002614Y003932D01*
X002642Y003918D01*
X002668Y003900D01*
X002692Y003880D01*
X002713Y003856D01*
X002732Y003831D01*
X002747Y003803D01*
X002758Y003774D01*
X002766Y003743D01*
X002770Y003712D01*
X002770Y003680D01*
X002766Y003649D01*
X002758Y003618D01*
X002747Y003589D01*
X002732Y003561D01*
X002713Y003536D01*
X002692Y003512D01*
X002668Y003492D01*
X002642Y003474D01*
X002614Y003460D01*
X002584Y003450D01*
X002553Y003443D01*
X002522Y003440D01*
X002490Y003441D01*
X002459Y003446D01*
X002429Y003455D01*
X002400Y003467D01*
X002373Y003483D01*
X002347Y003502D01*
X002325Y003524D01*
X002305Y003548D01*
X002288Y003575D01*
X002275Y003604D01*
X002266Y003634D01*
X002260Y003665D01*
X002258Y003696D01*
X005014Y003696D02*
X005016Y003727D01*
X005022Y003758D01*
X005031Y003788D01*
X005044Y003817D01*
X005061Y003844D01*
X005081Y003868D01*
X005103Y003890D01*
X005129Y003909D01*
X005156Y003925D01*
X005185Y003937D01*
X005215Y003946D01*
X005246Y003951D01*
X005278Y003952D01*
X005309Y003949D01*
X005340Y003942D01*
X005370Y003932D01*
X005398Y003918D01*
X005424Y003900D01*
X005448Y003880D01*
X005469Y003856D01*
X005488Y003831D01*
X005503Y003803D01*
X005514Y003774D01*
X005522Y003743D01*
X005526Y003712D01*
X005526Y003680D01*
X005522Y003649D01*
X005514Y003618D01*
X005503Y003589D01*
X005488Y003561D01*
X005469Y003536D01*
X005448Y003512D01*
X005424Y003492D01*
X005398Y003474D01*
X005370Y003460D01*
X005340Y003450D01*
X005309Y003443D01*
X005278Y003440D01*
X005246Y003441D01*
X005215Y003446D01*
X005185Y003455D01*
X005156Y003467D01*
X005129Y003483D01*
X005103Y003502D01*
X005081Y003524D01*
X005061Y003548D01*
X005044Y003575D01*
X005031Y003604D01*
X005022Y003634D01*
X005016Y003665D01*
X005014Y003696D01*
X005363Y011028D02*
X005365Y011077D01*
X005371Y011125D01*
X005381Y011173D01*
X005395Y011220D01*
X005412Y011266D01*
X005433Y011310D01*
X005458Y011352D01*
X005486Y011392D01*
X005518Y011430D01*
X005552Y011465D01*
X005589Y011497D01*
X005628Y011526D01*
X005670Y011552D01*
X005714Y011574D01*
X005759Y011592D01*
X005806Y011607D01*
X005853Y011618D01*
X005902Y011625D01*
X005951Y011628D01*
X006000Y011627D01*
X006048Y011622D01*
X006097Y011613D01*
X006144Y011600D01*
X006190Y011583D01*
X006234Y011563D01*
X006277Y011539D01*
X006318Y011512D01*
X006356Y011481D01*
X006392Y011448D01*
X006424Y011412D01*
X006454Y011373D01*
X006481Y011332D01*
X006504Y011288D01*
X006523Y011243D01*
X006539Y011197D01*
X006551Y011150D01*
X006559Y011101D01*
X006563Y011052D01*
X006563Y011004D01*
X006559Y010955D01*
X006551Y010906D01*
X006539Y010859D01*
X006523Y010813D01*
X006504Y010768D01*
X006481Y010724D01*
X006454Y010683D01*
X006424Y010644D01*
X006392Y010608D01*
X006356Y010575D01*
X006318Y010544D01*
X006277Y010517D01*
X006234Y010493D01*
X006190Y010473D01*
X006144Y010456D01*
X006097Y010443D01*
X006048Y010434D01*
X006000Y010429D01*
X005951Y010428D01*
X005902Y010431D01*
X005853Y010438D01*
X005806Y010449D01*
X005759Y010464D01*
X005714Y010482D01*
X005670Y010504D01*
X005628Y010530D01*
X005589Y010559D01*
X005552Y010591D01*
X005518Y010626D01*
X005486Y010664D01*
X005458Y010704D01*
X005433Y010746D01*
X005412Y010790D01*
X005395Y010836D01*
X005381Y010883D01*
X005371Y010931D01*
X005365Y010979D01*
X005363Y011028D01*
X006924Y013390D02*
X006926Y013411D01*
X006932Y013431D01*
X006941Y013451D01*
X006953Y013468D01*
X006968Y013482D01*
X006986Y013494D01*
X007006Y013502D01*
X007026Y013507D01*
X007047Y013508D01*
X007068Y013505D01*
X007088Y013499D01*
X007107Y013488D01*
X007124Y013475D01*
X007137Y013459D01*
X007148Y013441D01*
X007156Y013421D01*
X007160Y013401D01*
X007160Y013379D01*
X007156Y013359D01*
X007148Y013339D01*
X007137Y013321D01*
X007124Y013305D01*
X007107Y013292D01*
X007088Y013281D01*
X007068Y013275D01*
X007047Y013272D01*
X007026Y013273D01*
X007006Y013278D01*
X006986Y013286D01*
X006968Y013298D01*
X006953Y013312D01*
X006941Y013329D01*
X006932Y013349D01*
X006926Y013369D01*
X006924Y013390D01*
X006924Y017957D02*
X006926Y017978D01*
X006932Y017998D01*
X006941Y018018D01*
X006953Y018035D01*
X006968Y018049D01*
X006986Y018061D01*
X007006Y018069D01*
X007026Y018074D01*
X007047Y018075D01*
X007068Y018072D01*
X007088Y018066D01*
X007107Y018055D01*
X007124Y018042D01*
X007137Y018026D01*
X007148Y018008D01*
X007156Y017988D01*
X007160Y017968D01*
X007160Y017946D01*
X007156Y017926D01*
X007148Y017906D01*
X007137Y017888D01*
X007124Y017872D01*
X007107Y017859D01*
X007088Y017848D01*
X007068Y017842D01*
X007047Y017839D01*
X007026Y017840D01*
X007006Y017845D01*
X006986Y017853D01*
X006968Y017865D01*
X006953Y017879D01*
X006941Y017896D01*
X006932Y017916D01*
X006926Y017936D01*
X006924Y017957D01*
X005363Y020319D02*
X005365Y020368D01*
X005371Y020416D01*
X005381Y020464D01*
X005395Y020511D01*
X005412Y020557D01*
X005433Y020601D01*
X005458Y020643D01*
X005486Y020683D01*
X005518Y020721D01*
X005552Y020756D01*
X005589Y020788D01*
X005628Y020817D01*
X005670Y020843D01*
X005714Y020865D01*
X005759Y020883D01*
X005806Y020898D01*
X005853Y020909D01*
X005902Y020916D01*
X005951Y020919D01*
X006000Y020918D01*
X006048Y020913D01*
X006097Y020904D01*
X006144Y020891D01*
X006190Y020874D01*
X006234Y020854D01*
X006277Y020830D01*
X006318Y020803D01*
X006356Y020772D01*
X006392Y020739D01*
X006424Y020703D01*
X006454Y020664D01*
X006481Y020623D01*
X006504Y020579D01*
X006523Y020534D01*
X006539Y020488D01*
X006551Y020441D01*
X006559Y020392D01*
X006563Y020343D01*
X006563Y020295D01*
X006559Y020246D01*
X006551Y020197D01*
X006539Y020150D01*
X006523Y020104D01*
X006504Y020059D01*
X006481Y020015D01*
X006454Y019974D01*
X006424Y019935D01*
X006392Y019899D01*
X006356Y019866D01*
X006318Y019835D01*
X006277Y019808D01*
X006234Y019784D01*
X006190Y019764D01*
X006144Y019747D01*
X006097Y019734D01*
X006048Y019725D01*
X006000Y019720D01*
X005951Y019719D01*
X005902Y019722D01*
X005853Y019729D01*
X005806Y019740D01*
X005759Y019755D01*
X005714Y019773D01*
X005670Y019795D01*
X005628Y019821D01*
X005589Y019850D01*
X005552Y019882D01*
X005518Y019917D01*
X005486Y019955D01*
X005458Y019995D01*
X005433Y020037D01*
X005412Y020081D01*
X005395Y020127D01*
X005381Y020174D01*
X005371Y020222D01*
X005365Y020270D01*
X005363Y020319D01*
X014801Y005176D02*
X014803Y005230D01*
X014809Y005284D01*
X014819Y005337D01*
X014832Y005390D01*
X014849Y005441D01*
X014870Y005491D01*
X014895Y005539D01*
X014923Y005586D01*
X014954Y005630D01*
X014988Y005672D01*
X015025Y005711D01*
X015065Y005748D01*
X015108Y005781D01*
X015153Y005812D01*
X015200Y005839D01*
X015248Y005862D01*
X015299Y005882D01*
X015350Y005899D01*
X015403Y005911D01*
X015456Y005920D01*
X015510Y005925D01*
X015565Y005926D01*
X015619Y005923D01*
X015672Y005916D01*
X015725Y005905D01*
X015778Y005891D01*
X015829Y005873D01*
X015878Y005851D01*
X015926Y005826D01*
X015972Y005797D01*
X016016Y005765D01*
X016057Y005730D01*
X016095Y005692D01*
X016131Y005651D01*
X016164Y005608D01*
X016194Y005563D01*
X016220Y005515D01*
X016243Y005466D01*
X016262Y005415D01*
X016277Y005364D01*
X016289Y005311D01*
X016297Y005257D01*
X016301Y005203D01*
X016301Y005149D01*
X016297Y005095D01*
X016289Y005041D01*
X016277Y004988D01*
X016262Y004937D01*
X016243Y004886D01*
X016220Y004837D01*
X016194Y004789D01*
X016164Y004744D01*
X016131Y004701D01*
X016095Y004660D01*
X016057Y004622D01*
X016016Y004587D01*
X015972Y004555D01*
X015926Y004526D01*
X015878Y004501D01*
X015829Y004479D01*
X015778Y004461D01*
X015725Y004447D01*
X015672Y004436D01*
X015619Y004429D01*
X015565Y004426D01*
X015510Y004427D01*
X015456Y004432D01*
X015403Y004441D01*
X015350Y004453D01*
X015299Y004470D01*
X015248Y004490D01*
X015200Y004513D01*
X015153Y004540D01*
X015108Y004571D01*
X015065Y004604D01*
X015025Y004641D01*
X014988Y004680D01*
X014954Y004722D01*
X014923Y004766D01*
X014895Y004813D01*
X014870Y004861D01*
X014849Y004911D01*
X014832Y004962D01*
X014819Y005015D01*
X014809Y005068D01*
X014803Y005122D01*
X014801Y005176D01*
X028104Y005176D02*
X028106Y005230D01*
X028112Y005284D01*
X028122Y005337D01*
X028135Y005390D01*
X028152Y005441D01*
X028173Y005491D01*
X028198Y005539D01*
X028226Y005586D01*
X028257Y005630D01*
X028291Y005672D01*
X028328Y005711D01*
X028368Y005748D01*
X028411Y005781D01*
X028456Y005812D01*
X028503Y005839D01*
X028551Y005862D01*
X028602Y005882D01*
X028653Y005899D01*
X028706Y005911D01*
X028759Y005920D01*
X028813Y005925D01*
X028868Y005926D01*
X028922Y005923D01*
X028975Y005916D01*
X029028Y005905D01*
X029081Y005891D01*
X029132Y005873D01*
X029181Y005851D01*
X029229Y005826D01*
X029275Y005797D01*
X029319Y005765D01*
X029360Y005730D01*
X029398Y005692D01*
X029434Y005651D01*
X029467Y005608D01*
X029497Y005563D01*
X029523Y005515D01*
X029546Y005466D01*
X029565Y005415D01*
X029580Y005364D01*
X029592Y005311D01*
X029600Y005257D01*
X029604Y005203D01*
X029604Y005149D01*
X029600Y005095D01*
X029592Y005041D01*
X029580Y004988D01*
X029565Y004937D01*
X029546Y004886D01*
X029523Y004837D01*
X029497Y004789D01*
X029467Y004744D01*
X029434Y004701D01*
X029398Y004660D01*
X029360Y004622D01*
X029319Y004587D01*
X029275Y004555D01*
X029229Y004526D01*
X029181Y004501D01*
X029132Y004479D01*
X029081Y004461D01*
X029028Y004447D01*
X028975Y004436D01*
X028922Y004429D01*
X028868Y004426D01*
X028813Y004427D01*
X028759Y004432D01*
X028706Y004441D01*
X028653Y004453D01*
X028602Y004470D01*
X028551Y004490D01*
X028503Y004513D01*
X028456Y004540D01*
X028411Y004571D01*
X028368Y004604D01*
X028328Y004641D01*
X028291Y004680D01*
X028257Y004722D01*
X028226Y004766D01*
X028198Y004813D01*
X028173Y004861D01*
X028152Y004911D01*
X028135Y004962D01*
X028122Y005015D01*
X028112Y005068D01*
X028106Y005122D01*
X028104Y005176D01*
X029777Y010931D02*
X029779Y010952D01*
X029785Y010973D01*
X029794Y010993D01*
X029807Y011010D01*
X029822Y011025D01*
X029840Y011037D01*
X029860Y011045D01*
X029881Y011050D01*
X029902Y011051D01*
X029924Y011048D01*
X029944Y011041D01*
X029963Y011031D01*
X029980Y011018D01*
X029994Y011002D01*
X030005Y010983D01*
X030013Y010963D01*
X030017Y010942D01*
X030017Y010920D01*
X030013Y010899D01*
X030005Y010879D01*
X029994Y010860D01*
X029980Y010844D01*
X029963Y010831D01*
X029944Y010821D01*
X029924Y010814D01*
X029902Y010811D01*
X029881Y010812D01*
X029860Y010817D01*
X029840Y010825D01*
X029822Y010837D01*
X029807Y010852D01*
X029794Y010869D01*
X029785Y010889D01*
X029779Y010910D01*
X029777Y010931D01*
X031367Y012541D02*
X031369Y012562D01*
X031375Y012583D01*
X031384Y012603D01*
X031397Y012620D01*
X031412Y012635D01*
X031430Y012647D01*
X031450Y012655D01*
X031471Y012660D01*
X031492Y012661D01*
X031514Y012658D01*
X031534Y012651D01*
X031553Y012641D01*
X031570Y012628D01*
X031584Y012612D01*
X031595Y012593D01*
X031603Y012573D01*
X031607Y012552D01*
X031607Y012530D01*
X031603Y012509D01*
X031595Y012489D01*
X031584Y012470D01*
X031570Y012454D01*
X031553Y012441D01*
X031534Y012431D01*
X031514Y012424D01*
X031492Y012421D01*
X031471Y012422D01*
X031450Y012427D01*
X031430Y012435D01*
X031412Y012447D01*
X031397Y012462D01*
X031384Y012479D01*
X031375Y012499D01*
X031369Y012520D01*
X031367Y012541D01*
D12*
X004019Y013551D03*
X002247Y013551D03*
X002247Y009921D03*
X004019Y009921D03*
D13*
X016323Y012381D03*
X016323Y012637D03*
X016323Y012893D03*
X016323Y013149D03*
X016323Y013405D03*
X016323Y013661D03*
X016323Y013917D03*
X018606Y013917D03*
X018606Y013661D03*
X018606Y013405D03*
X018606Y013149D03*
X018606Y012893D03*
X018606Y012637D03*
X018606Y012381D03*
D14*
X020889Y012799D03*
X020889Y013587D03*
X021243Y011894D03*
X021243Y011106D03*
D15*
X013133Y012937D03*
X013133Y013685D03*
D16*
X010711Y010161D03*
X009963Y010161D03*
X009963Y009216D03*
X010711Y009216D03*
X018625Y014807D03*
X019373Y014807D03*
X025869Y014886D03*
X026617Y014886D03*
X026460Y015949D03*
X027208Y015949D03*
X027168Y016894D03*
X027916Y016894D03*
D17*
X010736Y008114D03*
X009826Y008114D03*
X008916Y008114D03*
D18*
X009826Y005674D03*
D19*
X030141Y011451D03*
X030141Y012022D03*
X031243Y012022D03*
X031243Y011451D03*
M02*
